<svg xmlns="http://www.w3.org/2000/svg" width="128" height="128" viewBox="0 0 128 128" fill="none">
  <defs>
    <linearGradient id="border" x1="10" y1="10" x2="118" y2="118" gradientUnits="userSpaceOnUse">
      <stop stop-color="#2AA7FF"/>
      <stop offset="1" stop-color="#18F0B8"/>
    </linearGradient>
    <linearGradient id="ring" x1="30" y1="28" x2="99" y2="100" gradientUnits="userSpaceOnUse">
      <stop stop-color="#25C7FF"/>
      <stop offset="1" stop-color="#19F0A6"/>
    </linearGradient>
    <linearGradient id="o" x1="29" y1="49" x2="58" y2="84" gradientUnits="userSpaceOnUse">
      <stop stop-color="#27C7FF"/>
      <stop offset="1" stop-color="#1E7BFF"/>
    </linearGradient>
    <linearGradient id="c" x1="76" y1="48" x2="101" y2="80" gradientUnits="userSpaceOnUse">
      <stop stop-color="#27D1FF"/>
      <stop offset="1" stop-color="#18E98E"/>
    </linearGradient>
    <linearGradient id="slash" x1="59" y1="52" x2="72" y2="79" gradientUnits="userSpaceOnUse">
      <stop stop-color="#FFFFFF"/>
      <stop offset="1" stop-color="#BFE5FF"/>
    </linearGradient>
    <filter id="glow" x="17" y="18" width="94" height="94" filterUnits="userSpaceOnUse" color-interpolation-filters="sRGB">
      <feGaussianBlur stdDeviation="3.5" result="blur"/>
      <feComposite in="SourceGraphic" in2="blur" operator="over"/>
    </filter>
  </defs>

  <rect x="4" y="4" width="120" height="120" rx="24" fill="#08162F"/>
  <rect x="4" y="4" width="120" height="120" rx="24" stroke="url(#border)" stroke-width="3"/>

  <g opacity="0.35" fill="#0F4A95">
    <rect x="15" y="17" width="3" height="3" rx="1.5"/>
    <rect x="21" y="17" width="3" height="3" rx="1.5"/>
    <rect x="27" y="17" width="13" height="3" rx="1.5"/>
    <rect x="15" y="22" width="3" height="3" rx="1.5"/>
    <rect x="27" y="22" width="8" height="3" rx="1.5"/>
    <rect x="38" y="22" width="20" height="3" rx="1.5"/>
    <rect x="15" y="27" width="3" height="3" rx="1.5"/>
    <rect x="27" y="27" width="7" height="3" rx="1.5"/>
    <rect x="37" y="27" width="15" height="3" rx="1.5"/>
    <rect x="87" y="88" width="20" height="3" rx="1.5"/>
    <rect x="79" y="93" width="3" height="3" rx="1.5"/>
    <rect x="84" y="93" width="15" height="3" rx="1.5"/>
    <rect x="79" y="98" width="3" height="3" rx="1.5"/>
    <rect x="84" y="98" width="10" height="3" rx="1.5"/>
    <rect x="96" y="98" width="3" height="3" rx="1.5"/>
    <rect x="101" y="98" width="13" height="3" rx="1.5"/>
  </g>

  <g filter="url(#glow)">
    <circle cx="64" cy="64" r="27" stroke="url(#ring)" stroke-width="4.5"/>
    <circle cx="64" cy="38" r="5.8" fill="#08162F" stroke="url(#ring)" stroke-width="2.8"/>
    <circle cx="64" cy="90" r="5.8" fill="#08162F" stroke="url(#ring)" stroke-width="2.8"/>
  </g>

  <path d="M24 64L36 52" stroke="#28AFFF" stroke-width="5.5" stroke-linecap="round"/>
  <path d="M24 64L36 76" stroke="#1F7DFF" stroke-width="5.5" stroke-linecap="round"/>
  <path d="M104 64L92 52" stroke="#59F1C6" stroke-width="5.5" stroke-linecap="round"/>
  <path d="M104 64L92 76" stroke="#16E889" stroke-width="5.5" stroke-linecap="round"/>

  <circle cx="43" cy="64" r="13.5" stroke="url(#o)" stroke-width="6.5"/>
  <path d="M74 52C71 49 67.5 47.5 63.8 47.5C54.7 47.5 47.5 54.7 47.5 63.8C47.5 72.9 54.7 80.1 63.8 80.1C67.5 80.1 71 78.9 73.8 76.2" stroke="url(#c)" stroke-width="6.5" stroke-linecap="round"/>
  <path d="M60.5 76L69 52" stroke="url(#slash)" stroke-width="5.4" stroke-linecap="round"/>
</svg>
